<?xml version="1.0" encoding="UTF-8" standalone="no"?>
<!-- Created with Inkscape (http://www.inkscape.org/) -->

<svg
   xmlns:dc="http://purl.org/dc/elements/1.1/"
   xmlns:cc="http://creativecommons.org/ns#"
   xmlns:rdf="http://www.w3.org/1999/02/22-rdf-syntax-ns#"
   xmlns:svg="http://www.w3.org/2000/svg"
   xmlns="http://www.w3.org/2000/svg"
   xmlns:sodipodi="http://sodipodi.sourceforge.net/DTD/sodipodi-0.dtd"
   xmlns:inkscape="http://www.inkscape.org/namespaces/inkscape"
   width="800"
   height="300"
   id="svg2"
   version="1.1"
   inkscape:version="0.48.4 r9939"
   sodipodi:docname="arrow.svg">
  <defs
     id="defs4">
    <marker
       inkscape:stockid="TriangleInM"
       orient="auto"
       refY="0.0"
       refX="0.0"
       id="TriangleInM"
       style="overflow:visible">
      <path
         id="path3895"
         d="M 5.77,0.0 L -2.88,5.0 L -2.88,-5.0 L 5.77,0.0 z "
         style="fill-rule:evenodd;stroke:#000000;stroke-width:1.0pt"
         transform="scale(-0.4)" />
    </marker>
    <marker
       inkscape:stockid="TriangleInL"
       orient="auto"
       refY="0.0"
       refX="0.0"
       id="TriangleInL"
       style="overflow:visible">
      <path
         id="path3892"
         d="M 5.77,0.0 L -2.88,5.0 L -2.88,-5.0 L 5.77,0.0 z "
         style="fill-rule:evenodd;stroke:#000000;stroke-width:1.0pt"
         transform="scale(-0.8)" />
    </marker>
    <marker
       inkscape:stockid="EmptyTriangleInM"
       orient="auto"
       refY="0.0"
       refX="0.0"
       id="EmptyTriangleInM"
       style="overflow:visible">
      <path
         id="path3913"
         d="M 5.77,0.0 L -2.88,5.0 L -2.88,-5.0 L 5.77,0.0 z "
         style="fill-rule:evenodd;fill:#FFFFFF;stroke:#000000;stroke-width:1.0pt"
         transform="scale(-0.4) translate(-4.5,0)" />
    </marker>
    <marker
       inkscape:stockid="Tail"
       orient="auto"
       refY="0.0"
       refX="0.0"
       id="Tail"
       style="overflow:visible">
      <g
         id="g3795"
         transform="scale(-1.2)">
        <path
           id="path3797"
           d="M -3.8048674,-3.9585227 L 0.54352094,0"
           style="fill:none;fill-rule:evenodd;stroke:#000000;stroke-width:0.8;stroke-linecap:round" />
        <path
           id="path3799"
           d="M -1.2866832,-3.9585227 L 3.0617053,0"
           style="fill:none;fill-rule:evenodd;stroke:#000000;stroke-width:0.8;stroke-linecap:round" />
        <path
           id="path3801"
           d="M 1.3053582,-3.9585227 L 5.6537466,0"
           style="fill:none;fill-rule:evenodd;stroke:#000000;stroke-width:0.8;stroke-linecap:round" />
        <path
           id="path3803"
           d="M -3.8048674,4.1775838 L 0.54352094,0.21974226"
           style="fill:none;fill-rule:evenodd;stroke:#000000;stroke-width:0.8;stroke-linecap:round" />
        <path
           id="path3805"
           d="M -1.2866832,4.1775838 L 3.0617053,0.21974226"
           style="fill:none;fill-rule:evenodd;stroke:#000000;stroke-width:0.8;stroke-linecap:round" />
        <path
           id="path3807"
           d="M 1.3053582,4.1775838 L 5.6537466,0.21974226"
           style="fill:none;fill-rule:evenodd;stroke:#000000;stroke-width:0.8;stroke-linecap:round" />
      </g>
    </marker>
    <marker
       inkscape:stockid="Arrow2Lstart"
       orient="auto"
       refY="0.0"
       refX="0.0"
       id="Arrow2Lstart"
       style="overflow:visible">
      <path
         id="path3777"
         style="fill-rule:evenodd;stroke-width:0.62500000;stroke-linejoin:round"
         d="M 8.7185878,4.0337352 L -2.2072895,0.016013256 L 8.7185884,-4.0017078 C 6.9730900,-1.6296469 6.9831476,1.6157441 8.7185878,4.0337352 z "
         transform="scale(1.1) translate(1,0)" />
    </marker>
    <marker
       inkscape:stockid="Arrow1Lstart"
       orient="auto"
       refY="0.0"
       refX="0.0"
       id="Arrow1Lstart"
       style="overflow:visible">
      <path
         id="path3759"
         d="M 0.0,0.0 L 5.0,-5.0 L -12.5,0.0 L 5.0,5.0 L 0.0,0.0 z "
         style="fill-rule:evenodd;stroke:#000000;stroke-width:1.0pt"
         transform="scale(0.8) translate(12.5,0)" />
    </marker>
    <marker
       inkscape:stockid="Arrow2Lend"
       orient="auto"
       refY="0.0"
       refX="0.0"
       id="Arrow2Lend"
       style="overflow:visible;">
      <path
         id="path3780"
         style="fill-rule:evenodd;stroke-width:0.62500000;stroke-linejoin:round;"
         d="M 8.7185878,4.0337352 L -2.2072895,0.016013256 L 8.7185884,-4.0017078 C 6.9730900,-1.6296469 6.9831476,1.6157441 8.7185878,4.0337352 z "
         transform="scale(1.1) rotate(180) translate(1,0)" />
    </marker>
  </defs>
  <sodipodi:namedview
     id="base"
     pagecolor="#000000"
     bordercolor="#666666"
     borderopacity="1.0"
     inkscape:pageopacity="0"
     inkscape:pageshadow="2"
     inkscape:zoom="1.4"
     inkscape:cx="476.2376"
     inkscape:cy="54.294852"
     inkscape:document-units="px"
     inkscape:current-layer="layer1"
     showgrid="false"
     inkscape:window-width="1680"
     inkscape:window-height="998"
     inkscape:window-x="-8"
     inkscape:window-y="-8"
     inkscape:window-maximized="1"
     showguides="true"
     inkscape:guide-bbox="true" />
  <metadata
     id="metadata7">
    <rdf:RDF>
      <cc:Work
         rdf:about="">
        <dc:format>image/svg+xml</dc:format>
        <dc:type
           rdf:resource="http://purl.org/dc/dcmitype/StillImage" />
        <dc:title></dc:title>
      </cc:Work>
    </rdf:RDF>
  </metadata>
  <g
     inkscape:label="Layer 1"
     inkscape:groupmode="layer"
     id="layer1"
     transform="translate(0,-752.36218)">
    <path
       style="fill:none;stroke:#6db33f;stroke-width:5;stroke-linecap:butt;stroke-linejoin:miter;stroke-miterlimit:4;stroke-opacity:1;stroke-dasharray:10, 10;stroke-dashoffset:0;marker-start:none;marker-end:none"
       d="m 87.142859,262.85714 c 0,0 131.134511,-340.916563 224.285701,-153.57143 93.15119,187.34513 149.7905,37.1681 272.05449,37.8326 85.49201,0.46464 195.83481,22.16895 192.94552,-62.832593 C 773.53928,-0.71583081 683.27067,12.13846 591.98369,10.173135 500.69672,8.2078098 413.39136,4.9942973 420.71428,82.142857 428.0372,159.29142 540.71429,145 540.71429,145"
       id="path2985"
       inkscape:connector-curvature="0"
       transform="translate(0,752.36218)"
       sodipodi:nodetypes="czszszc" />
    <path
       style="fill:#6db33f;fill-opacity:1;stroke:#6db33f;stroke-width:1px;stroke-linecap:butt;stroke-linejoin:miter;stroke-opacity:1"
       d="m 73.635983,1021.451 3.874806,29.5635 18.559672,-24.1585 z"
       id="path6305"
       inkscape:connector-curvature="0" />
    <g
       style="font-size:40px;font-style:normal;font-variant:normal;font-weight:normal;font-stretch:normal;line-height:125%;letter-spacing:0px;word-spacing:0px;fill:#6db33f;fill-opacity:1;stroke:none;font-family:KBREINDEERGAMES;-inkscape-font-specification:KBREINDEERGAMES"
       id="text6307"
       transform="translate(1.714286,-49.571429)">
      <text
         xml:space="preserve"
         style="font-size:40px;font-style:normal;font-variant:normal;font-weight:normal;font-stretch:normal;line-height:125%;letter-spacing:0px;word-spacing:0px;fill:#6db33f;fill-opacity:1;stroke:none;font-family:Andika;-inkscape-font-specification:Andika"
         x="483.57144"
         y="868.79077"
         id="text3026"
         sodipodi:linespacing="125%"><tspan
           sodipodi:role="line"
           id="tspan3028"
           x="483.57144"
           y="868.79077"
           style="font-size:48px;font-style:normal;font-variant:normal;font-weight:normal;font-stretch:normal;fill:#6db33f;fill-opacity:1;font-family:KBREINDEERGAMES;-inkscape-font-specification:KBREINDEERGAMES">Like us on</tspan></text>
    </g>
    <g
       style="font-size:40px;font-style:normal;font-variant:normal;font-weight:normal;font-stretch:normal;line-height:125%;letter-spacing:0px;word-spacing:0px;fill:#ffffff;fill-opacity:1;stroke:none;font-family:Andika;-inkscape-font-specification:Andika"
       id="text6311"
       transform="translate(16,-4)">
      <path
         d="m 491.2623,846.26288 -14.64844,0 0,6.58594 13.47656,0 0,6.65625 -13.47656,0 0,15 -8.71875,0 0,-34.89844 23.36719,0 z"
         style="font-size:48px;font-weight:bold;fill:#ffffff;fill-opacity:1;font-family:Tahoma;-inkscape-font-specification:Tahoma Bold"
         id="path3030"
         inkscape:connector-curvature="0" />
      <path
         d="m 509.87167,867.63788 0,-5.48438 c -1.39064,0.14064 -2.51564,0.26173 -3.375,0.36328 -0.85938,0.10158 -1.70313,0.3008 -2.53125,0.59766 -0.71876,0.25001 -1.27735,0.62892 -1.67578,1.13672 -0.39844,0.50782 -0.59766,1.1836 -0.59765,2.02734 -10e-6,1.23439 0.33202,2.08204 0.99609,2.54297 0.66405,0.46094 1.64452,0.69141 2.94141,0.69141 0.71873,0 1.45311,-0.16406 2.20312,-0.49219 0.74998,-0.32812 1.42967,-0.78906 2.03906,-1.38281 z m 0,4.07812 c -0.56251,0.46876 -1.06642,0.89063 -1.51172,1.26563 -0.44532,0.375 -1.04298,0.75 -1.79296,1.125 -0.73439,0.35937 -1.44924,0.63281 -2.14454,0.82031 -0.69532,0.1875 -1.66797,0.28125 -2.91796,0.28125 -2.32814,0 -4.26173,-0.78125 -5.80079,-2.34375 -1.53906,-1.5625 -2.30859,-3.53124 -2.30859,-5.90625 0,-1.95311 0.39062,-3.53124 1.17188,-4.73437 0.78124,-1.20312 1.90624,-2.15624 3.375,-2.85938 1.48436,-0.71873 3.2578,-1.21873 5.32031,-1.5 2.06249,-0.28123 4.28123,-0.49998 6.65625,-0.65625 l 0,-0.14062 c -2e-5,-1.45311 -0.53517,-2.45702 -1.60547,-3.01172 -1.07033,-0.55467 -2.67579,-0.83201 -4.81641,-0.83203 -0.96876,2e-5 -2.10157,0.1758 -3.39843,0.52734 -1.29689,0.35158 -2.56251,0.8008 -3.79688,1.34766 l -0.70312,0 0,-6.35157 c 0.81249,-0.23435 2.12499,-0.51169 3.9375,-0.83203 1.81249,-0.32028 3.64061,-0.48044 5.48437,-0.48047 4.53123,3e-5 7.83201,0.75394 9.90234,2.26172 2.07029,1.50784 3.10545,3.80862 3.10547,6.90235 l 0,17.90625 -8.15625,0 z"
         style="font-size:48px;font-weight:bold;fill:#ffffff;fill-opacity:1;font-family:Tahoma;-inkscape-font-specification:Tahoma Bold"
         id="path3032"
         inkscape:connector-curvature="0" />
      <path
         d="m 537.05917,875.20819 c -2.17189,0 -4.16016,-0.27344 -5.96484,-0.82031 -1.8047,-0.54688 -3.3711,-1.39063 -4.69922,-2.53125 -1.3125,-1.14062 -2.33594,-2.57422 -3.07031,-4.30078 -0.73438,-1.72656 -1.10157,-3.76171 -1.10156,-6.10547 -1e-5,-2.51561 0.39843,-4.65623 1.19531,-6.42188 0.79687,-1.7656 1.87499,-3.21872 3.23437,-4.35937 1.3125,-1.09373 2.85546,-1.90232 4.62891,-2.42578 1.77343,-0.52341 3.62108,-0.78513 5.54297,-0.78516 1.45311,3e-5 2.90623,0.168 4.35937,0.50391 1.45311,0.33596 2.91404,0.87112 4.38282,1.60547 l 0,7.03125 -1.05469,0 c -0.32815,-0.31249 -0.73049,-0.65624 -1.20703,-1.03125 -0.47659,-0.37498 -0.99612,-0.71873 -1.5586,-1.03125 -0.59377,-0.32811 -1.26564,-0.60545 -2.01562,-0.83204 -0.75002,-0.22654 -1.58596,-0.33982 -2.50781,-0.33984 -2.09377,2e-5 -3.71486,0.73049 -4.86329,2.19141 -1.14844,1.46095 -1.72266,3.42579 -1.72265,5.89453 -10e-6,2.64063 0.61327,4.60938 1.83984,5.90625 1.22655,1.29688 2.85546,1.94532 4.88672,1.94531 1.03123,1e-5 1.93748,-0.11718 2.71875,-0.35156 0.78123,-0.23437 1.45311,-0.51562 2.01563,-0.84375 0.54685,-0.32812 1.0156,-0.66796 1.40625,-1.01953 0.3906,-0.35156 0.72654,-0.66796 1.00781,-0.94922 l 1.05469,0 0,7.03125 c -0.46878,0.20312 -1.01175,0.4375 -1.62891,0.70312 -0.61721,0.26563 -1.24612,0.48438 -1.88672,0.65625 -0.79689,0.21875 -1.54299,0.38672 -2.23828,0.50391 -0.69533,0.11719 -1.6133,0.17578 -2.75391,0.17578 z"
         style="font-size:48px;font-weight:bold;fill:#ffffff;fill-opacity:1;font-family:Tahoma;-inkscape-font-specification:Tahoma Bold"
         id="path3034"
         inkscape:connector-curvature="0" />
      <path
         d="m 562.93417,875.20819 c -4.96876,0 -8.77735,-1.1875 -11.42578,-3.5625 -2.64844,-2.37499 -3.97266,-5.7578 -3.97265,-10.14844 -1e-5,-4.29685 1.23437,-7.72654 3.70312,-10.28906 2.46874,-2.56247 5.92187,-3.84372 10.35938,-3.84375 4.03123,3e-5 7.06247,1.08596 9.09375,3.25781 2.03122,2.1719 3.04684,5.28127 3.04687,9.32813 l 0,2.95312 -17.97656,0 c 0.0781,1.21876 0.33593,2.23829 0.77344,3.0586 0.43749,0.82032 1.01561,1.47266 1.73437,1.95703 0.70311,0.48438 1.52343,0.83204 2.46094,1.04297 0.93748,0.21094 1.96092,0.31641 3.07031,0.3164 0.95311,10e-6 1.89061,-0.10546 2.8125,-0.3164 0.92185,-0.21093 1.7656,-0.48828 2.53125,-0.83203 0.67185,-0.29687 1.29295,-0.61718 1.86328,-0.96094 0.57029,-0.34374 1.03513,-0.64843 1.39453,-0.91406 l 0.86719,0 0,6.77343 c -0.6719,0.26563 -1.28518,0.51172 -1.83984,0.73828 -0.55471,0.22657 -1.31643,0.45704 -2.28516,0.69141 -0.89065,0.23438 -1.80861,0.41797 -2.75391,0.55078 -0.94533,0.13281 -2.09767,0.19922 -3.45703,0.19922 z m 2.71875,-17.25 c -0.0469,-1.73436 -0.44923,-3.05467 -1.20703,-3.96094 -0.75783,-0.90623 -1.91798,-1.35935 -3.48047,-1.35937 -1.59376,2e-5 -2.83985,0.47658 -3.73828,1.42969 -0.89845,0.95314 -1.39454,2.25001 -1.48828,3.89062 z"
         style="font-size:48px;font-weight:bold;fill:#ffffff;fill-opacity:1;font-family:Tahoma;-inkscape-font-specification:Tahoma Bold"
         id="path3036"
         inkscape:connector-curvature="0" />
      <path
         d="m 595.37167,861.14569 c -2e-5,-2.62498 -0.39845,-4.49998 -1.19531,-5.625 -0.79689,-1.12498 -2.02345,-1.68748 -3.67969,-1.6875 -0.73439,2e-5 -1.46485,0.11721 -2.1914,0.35156 -0.72658,0.2344 -1.44142,0.58596 -2.14453,1.05469 l 0,13.21875 c 0.54686,0.21876 1.09764,0.36719 1.65234,0.44531 0.55467,0.0781 1.10545,0.1172 1.65234,0.11719 1.98436,1e-5 3.46483,-0.65624 4.44141,-1.96875 0.97654,-1.31249 1.46482,-3.28124 1.46484,-5.90625 z m 8.39063,-0.16406 c -3e-5,4.18751 -1.06253,7.57422 -3.1875,10.16015 -2.12503,2.58594 -4.75783,3.87891 -7.89844,3.87891 -1.31252,0 -2.45314,-0.14844 -3.42187,-0.44531 -0.96877,-0.29688 -2.00002,-0.75781 -3.09375,-1.38281 l -0.35157,1.3125 -7.85156,0 0,-36.46875 8.20313,0 0,12.89062 c 1.20311,-1.03122 2.42967,-1.86716 3.67968,-2.50781 1.24999,-0.6406 2.6953,-0.96091 4.33594,-0.96094 3.06248,3e-5 5.42576,1.19534 7.08984,3.58594 1.66404,2.39064 2.49607,5.70314 2.4961,9.9375 z"
         style="font-size:48px;font-weight:bold;fill:#ffffff;fill-opacity:1;font-family:Tahoma;-inkscape-font-specification:Tahoma Bold"
         id="path3038"
         inkscape:connector-curvature="0" />
      <path
         d="m 633.59824,861.35663 c -3e-5,4.32813 -1.18362,7.73829 -3.55079,10.23047 -2.36721,2.49219 -5.71486,3.73828 -10.04296,3.73828 -4.29689,0 -7.63673,-1.24609 -10.01954,-3.73828 -2.38281,-2.49218 -3.57422,-5.90234 -3.57421,-10.23047 -1e-5,-4.37498 1.1914,-7.80076 3.57421,-10.27735 2.38281,-2.47653 5.72265,-3.71481 10.01954,-3.71484 4.31248,3e-5 7.65622,1.24612 10.03125,3.73828 2.37497,2.49221 3.56247,5.91018 3.5625,10.25391 z m -8.41407,0.0469 c -2e-5,-1.56248 -0.12892,-2.86326 -0.38672,-3.90234 -0.25783,-1.03904 -0.6133,-1.87108 -1.0664,-2.49609 -0.48439,-0.65623 -1.03127,-1.11326 -1.64063,-1.3711 -0.60939,-0.25779 -1.3047,-0.3867 -2.08593,-0.38672 -0.73439,2e-5 -1.39845,0.11331 -1.99219,0.33985 -0.59376,0.22658 -1.14064,0.66017 -1.64063,1.30078 -0.46876,0.60939 -0.84376,1.44533 -1.125,2.50781 -0.28126,1.06252 -0.42188,2.39845 -0.42187,4.00781 -10e-6,1.60939 0.1328,2.91017 0.39844,3.90235 0.26561,0.99219 0.60936,1.78516 1.03125,2.3789 0.43748,0.60938 0.98436,1.0547 1.64062,1.33594 0.65624,0.28126 1.3828,0.42188 2.17969,0.42188 0.65623,0 1.3242,-0.14062 2.0039,-0.42188 0.67967,-0.28124 1.22264,-0.70312 1.62891,-1.26562 0.48436,-0.67187 0.85154,-1.48046 1.10156,-2.42579 0.24998,-0.9453 0.37498,-2.25389 0.375,-3.92578 z"
         style="font-size:48px;font-weight:bold;fill:#ffffff;fill-opacity:1;font-family:Tahoma;-inkscape-font-specification:Tahoma Bold"
         id="path3040"
         inkscape:connector-curvature="0" />
      <path
         d="m 663.22324,861.35663 c -3e-5,4.32813 -1.18362,7.73829 -3.55079,10.23047 -2.36721,2.49219 -5.71486,3.73828 -10.04296,3.73828 -4.29689,0 -7.63673,-1.24609 -10.01954,-3.73828 -2.38281,-2.49218 -3.57422,-5.90234 -3.57421,-10.23047 -1e-5,-4.37498 1.1914,-7.80076 3.57421,-10.27735 2.38281,-2.47653 5.72265,-3.71481 10.01954,-3.71484 4.31248,3e-5 7.65622,1.24612 10.03125,3.73828 2.37497,2.49221 3.56247,5.91018 3.5625,10.25391 z m -8.41407,0.0469 c -2e-5,-1.56248 -0.12892,-2.86326 -0.38672,-3.90234 -0.25783,-1.03904 -0.6133,-1.87108 -1.0664,-2.49609 -0.48439,-0.65623 -1.03127,-1.11326 -1.64063,-1.3711 -0.60939,-0.25779 -1.3047,-0.3867 -2.08593,-0.38672 -0.73439,2e-5 -1.39845,0.11331 -1.99219,0.33985 -0.59376,0.22658 -1.14064,0.66017 -1.64063,1.30078 -0.46876,0.60939 -0.84376,1.44533 -1.125,2.50781 -0.28126,1.06252 -0.42188,2.39845 -0.42187,4.00781 -10e-6,1.60939 0.1328,2.91017 0.39844,3.90235 0.26561,0.99219 0.60936,1.78516 1.03125,2.3789 0.43748,0.60938 0.98436,1.0547 1.64062,1.33594 0.65624,0.28126 1.3828,0.42188 2.17969,0.42188 0.65623,0 1.3242,-0.14062 2.0039,-0.42188 0.67967,-0.28124 1.22264,-0.70312 1.62891,-1.26562 0.48436,-0.67187 0.85154,-1.48046 1.10156,-2.42579 0.24998,-0.9453 0.37498,-2.25389 0.375,-3.92578 z"
         style="font-size:48px;font-weight:bold;fill:#ffffff;fill-opacity:1;font-family:Tahoma;-inkscape-font-specification:Tahoma Bold"
         id="path3042"
         inkscape:connector-curvature="0" />
      <path
         d="m 693.92636,874.50507 -9.75,0 -7.125,-11.46094 -1.26562,1.71094 0,9.75 -8.20313,0 0,-36.46875 8.20313,0 0,20.4375 7.78125,-10.28907 9.67968,0 -9.21093,11.34375 z"
         style="font-size:48px;font-weight:bold;fill:#ffffff;fill-opacity:1;font-family:Tahoma;-inkscape-font-specification:Tahoma Bold"
         id="path3044"
         inkscape:connector-curvature="0" />
      <path
         d="m 713.05136,839.60663 -0.96094,24.84375 -7.40625,0 -0.96093,-24.84375 z m -0.0469,34.89844 -9.23438,0 0,-6.1875 9.23438,0 z"
         style="font-size:48px;font-weight:bold;fill:#ffffff;fill-opacity:1;font-family:Tahoma;-inkscape-font-specification:Tahoma Bold"
         id="path3048"
         inkscape:connector-curvature="0" />
    </g>
  </g>
</svg>
